PathFileType	4	(X/Y/Z)	C:/Users/beibeiliu/ov580/test_trc/capture2\sequence.30_training_dense_left.trc
DataRate	CameraRate	NumFrames	NumMarkers	Units	OrigDataRate	OrigDataStartFrame	OrigNumFrames
120	120	16	19	mm	120	351	400
Frame#	Time	ThumbCMC			ThumbMCP			ThumbIP			ThumbTip			IndexMCP			IndexPIP			IndexTip			MiddleMCP			MiddlePIP			MiddleTip			RingMCP			RingPIP			RingTip			PinkyMCP			PinkyPIP			PinkyTip			BackHand1			BackHand2			BackHand3	
		X0	Y0	Z0	X1	Y1	Z1	X2	Y2	Z2	X3	Y3	Z3	X4	Y4	Z4	X5	Y5	Z5	X6	Y6	Z6	X7	Y7	Z7	X8	Y8	Z8	X9	Y9	Z9	X10	Y10	Z10	X11	Y11	Z11	X12	Y12	Z12	X13	Y13	Z13	X14	Y14	Z14	X15	Y15	Z15	X16	Y16	Z16	X17	Y17	Z17	X18	Y18	Z18	
350	2.91667	-125.007	22.4828	29.4983	-119.699	10.2261	-3.08663	-125.926	14.8196	-29.9006	-147.076	27.3687	-44.0408	-104.315	54.5244	-38.4366	-98.3878	53.3565	-58.4966	-87.5185	56.9723	-82.9744	-128.491	68.7949	-46.3918	-122.991	73.2264	-69.0898	-114.988	84.0553	-93.836	-150.278	67.2492	-40.0386	-148.926	77.2178	-66.9447	-144.697	88.2535	-87.7158	-179.494	61.4201	-34.9981	-182.726	66.0282	-57.7368	-189.352	82.4518	-72.7252	-161.202	65.8354	2.30391	-163.619	65.2445	32.4547	-136.643	61.3741	26.0954	
351	2.925	-122.696	24.3677	28.7267	-117.782	10.2105	-4.20402	-125.567	15.3242	-33.0726	-146.076	28.0567	-43.7472	-102.715	53.2105	-36.4462	-96.3896	51.3318	-55.9695	-85.5423	54.0859	-83.6946	-130.087	68.0129	-45.0765	-119.167	71.5861	-65.5872	-118.173	81.5547	-91.6139	-154.388	69.5422	-45.8841	-152.775	76.2126	-68.0277	-152.311	85.0908	-87.9061	-177.066	59.2848	-37.2468	-180.879	61.9874	-55.9408	-191.801	76.0443	-72.0712	-160.603	65.6875	7.03169	-168.572	64.0135	30.2845	-133.802	61.6696	24.6331	
352	2.93333	-124.048	25.5048	28.6374	-117.499	10.8665	-0.912757	-125.762	17.9525	-32.9934	-145.341	26.2647	-42.5704	-103.095	53.8802	-35.2527	-90.8463	50.9729	-59.34	-88.5471	54.3215	-83.2622	-128.314	67.1478	-42.3564	-122.67	70.9061	-65.7731	-112.358	80.7505	-94.4303	-155.426	68.3647	-47.4169	-152.077	72.5442	-65.9628	-150.156	82.4015	-90.2881	-181.039	60.4037	-41.0499	-182.807	60.8134	-58.0828	-191.777	74.6748	-71.6641	-162.494	68.8132	2.68387	-171.168	63.9235	33.08	-137.667	63.0727	25.2792	
353	2.94167	-123.607	27.3355	26.9895	-116.696	12.2916	0.184272	-122.768	17.9337	-30.4968	-141.152	24.9926	-42.8569	-106.24	55.4952	-39.7347	-95.2865	52.5234	-61.6976	-86.4221	53.5564	-81.6766	-125.558	67.4968	-47.0427	-119.732	69.502	-70.443	-116.443	78.7169	-94.954	-155.963	66.4422	-43.9861	-151.994	72.6746	-67.5166	-150.988	79.8306	-88.1698	-181.683	59.5642	-39.963	-182.008	60.8602	-58.5241	-193.494	72.6662	-70.7194	-160.701	66.3543	2.77502	-166.126	64.0061	33.2548	-133.764	63.2127	22.4498	
354	2.95	-119.527	25.0061	30.5158	-111.489	13.3168	-0.620892	-116.76	17.2336	-29.0286	-138.796	25.6535	-43.6702	-105.508	54.3547	-37.0765	-96.8551	52.9354	-60.7492	-88.7497	54.889	-80.428	-131.163	65.8353	-44.1489	-122.588	68.7807	-70.3581	-119.407	76.0508	-94.2848	-153.676	65.9741	-44.2111	-151.825	71.3964	-67.1683	-153.445	80.2262	-90.624	-177.24	58.3884	-36.4322	-185.846	63.1656	-57.7138	-189.647	75.1934	-71.2075	-159.622	67.5946	6.06244	-168.365	66.2972	35.6852	-135.311	60.0214	25.3146	
355	2.95833	-119.781	25.0774	32.5674	-108.012	13.6202	3.28698	-112.21	17.8973	-27.5575	-127.972	22.1147	-44.1084	-107.966	52.7016	-38.4639	-99.1778	53.1365	-62.4942	-90.6941	55.7339	-79.5403	-130.838	65.3626	-48.2695	-123.84	66.6964	-69.0387	-122.293	74.4912	-93.7012	-155.096	66.0641	-42.619	-152.333	71.8206	-66.8789	-151.065	79.4438	-87.7181	-179.678	62.4745	-38.1384	-182.022	65.6952	-57.1845	-192.087	80.7259	-69.601	-163.012	67.5887	5.91437	-163.348	66.2787	33.9041	-130.696	60.4541	22.0887	
356	2.96667	-118.042	26.1676	33.6446	-107.59	16.5255	6.29332	-108.477	16.6197	-19.4972	-122.947	22.0057	-45.5982	-107.092	50.521	-38.961	-100.757	50.6814	-57.9786	-95.435	57.3615	-84.0078	-130.036	63.5822	-45.2612	-126.564	65.3121	-70.2939	-122.138	74.4494	-96.7626	-149.986	65.9368	-43.0415	-150.225	72.268	-66.3736	-151.973	82.7322	-89.1619	-174.2	64.6832	-36.3155	-179.04	70.1953	-55.2217	-185.388	85.4255	-69.4704	-160.268	67.001	5.69031	-161.328	65.3157	37.1235	-128.303	59.8315	23.7323	
357	2.975	-117.871	25.5753	36.2114	-103.322	16.298	11.285	-103.176	19.2538	-20.9656	-117.446	22.1602	-39.7563	-108.648	50.4115	-36.7296	-100.449	49.7491	-58.0903	-97.3504	56.0078	-80.3141	-126.503	60.4593	-43.4825	-125.149	63.3377	-67.7606	-118.632	72.6	-96.8071	-148.808	66.6857	-42.4164	-150.292	73.1603	-64.1344	-144.765	82.6201	-87.3611	-172.574	65.3442	-35.3747	-177.526	70.5847	-50.957	-184.452	88.3531	-70.1538	-157.87	68.4888	9.12485	-162.091	67.9706	36.333	-130.726	59.5216	25.9087	
358	2.98333	-115.608	27.1984	38.077	-102.62	17.3118	12.1594	-101.883	19.407	-16.5368	-115.033	22.9283	-39.7041	-105.821	50.3613	-33.9515	-102.595	51.3516	-57.3015	-95.4491	55.0515	-83.1373	-126.277	63.275	-47.5318	-122.64	64.3189	-70.111	-119.82	71.0539	-94.9959	-150.637	69.3345	-45.8787	-150.957	73.347	-63.4449	-146.737	84.4375	-88.2805	-175.195	68.3306	-34.8694	-179.818	74.3954	-53.4103	-178.281	88.0925	-67.3662	-154.161	70.068	5.20219	-161.77	71.3963	34.8138	-127.041	58.2717	26.3836	
359	2.99167	-115.508	30.629	33.8236	-101.758	20.0037	13.0244	-98.046	19.252	-16.3446	-111.072	22.1214	-40.3555	-103.424	50.7893	-36.2121	-98.0733	50.4241	-60.1466	-95.6645	56.0168	-83.0738	-123.678	63.0048	-44.5267	-122.674	63.2587	-66.8857	-119.736	72.2234	-98.7095	-149.595	68.8783	-41.6292	-148.581	75.5497	-66.672	-145.614	84.535	-87.8936	-170.551	65.7467	-31.4902	-176.635	73.0773	-50.6097	-180.501	91.002	-69.7831	-156.027	72.6063	5.71885	-163.154	71.6982	36.7829	-124.834	60.0173	22.4327	
360	3	-113.63	30.1784	34.6643	-103.773	21.1182	13.8193	-103.56	22.6757	-18.3375	-112.35	24.5294	-40.6353	-107.886	53.9328	-38.0551	-99.3778	52.6614	-62.5374	-98.61	57.2855	-85.6833	-123.002	63.4066	-46.4518	-122.743	66.1077	-71.1045	-115.816	70.5045	-99.4855	-150.282	70.6755	-41.3595	-148.923	75.9016	-64.7286	-144.424	85.3882	-90.2088	-169.173	69.4784	-35.6793	-176.631	74.9229	-50.2455	-177.429	89.3569	-67.9563	-154.537	72.8933	3.07675	-161.314	72.5728	32.0003	-127.264	62.5862	23.8352	
361	3.00833	-118.344	31.7971	33.8798	-103.22	22.2668	8.91897	-101.905	23.4426	-20.0374	-113.643	24.9371	-41.7351	-108.347	54.2035	-39.4004	-102.081	53.6378	-59.5838	-96.4908	58.247	-84.6611	-124.489	63.3921	-43.749	-121.656	63.8912	-68.1175	-117.847	69.7987	-95.8396	-149.44	69.7293	-42.2765	-148.004	76.6678	-67.7665	-143.778	85.4588	-88.8759	-172.55	69.9783	-33.2882	-176.498	76.1121	-53.8007	-178.923	94.469	-69.7533	-152.542	70.7156	8.46176	-157.648	70.8833	37.0486	-129.999	63.0314	23.6383	
362	3.01667	-118.687	30.7156	35.4955	-100.634	21.472	7.67817	-99.8458	21.1842	-19.3014	-116.832	25.6305	-43.4885	-106.823	52.8412	-36.8414	-102.046	52.8917	-60.7271	-94.0743	57.696	-84.5874	-129.184	64.9577	-44.9326	-120.568	64.4293	-70.5119	-116.591	70.3766	-96.5585	-147.518	70.4366	-42.4967	-144.976	73.4383	-63.8165	-141.348	85.584	-91.0536	-170.05	69.1904	-34.515	-176.965	76.9762	-54.4631	-178.605	91.8501	-69.0598	-151.803	72.7533	8.96501	-158.202	72.7053	32.7501	-129.436	64.1744	23.0227	
363	3.025	-117.105	31.0511	35.0717	-105.025	22.2074	7.9536	-101.398	20.8954	-17.0806	-117.737	26.5294	-41.1521	-104.972	52.8014	-35.5202	-99.8311	52.994	-59.8178	-91.946	57.132	-85.9268	-126.996	65.0924	-45.7609	-122.214	65.4173	-68.7384	-119.154	73.3105	-96.7753	-146.644	70.2963	-41.1912	-146.166	75.8707	-64.5035	-145.751	85.34	-87.721	-170.202	70.5898	-34.8472	-178.832	76.9043	-51.8455	-181.649	93.2362	-66.1526	-152.8	72.2003	8.06454	-157.107	70.3134	36.4827	-124.788	63.05	24.0965	
364	3.03333	-116.22	29.9065	33.1948	-106.079	23.4328	6.94619	-105.103	23.3995	-21.7259	-118.669	26.6249	-39.9228	-106.697	56.0277	-40.5112	-101.019	55.4553	-62.2738	-95.4799	60.2925	-84.4007	-126.383	67.42	-45.2281	-120.982	68.664	-70.2966	-120.1	75.1526	-95.9021	-149.729	73.5252	-42.7232	-148.053	77.7998	-64.2836	-146.133	85.5803	-86.0738	-175.677	72.0983	-33.0962	-176.958	77.2663	-54.4314	-179.986	91.5926	-68.1064	-157.786	74.2367	8.82705	-158.05	70.7634	37.5461	-126.993	64.3612	21.0471	
365	3.04167	-118.628	31.1964	32.2734	-108.002	23.3335	2.92479	-107.708	24.1687	-23.1941	-123.277	29.8434	-44.2617	-107.04	58.3996	-35.0258	-101.351	58.1297	-60.1114	-94.9016	64.0295	-85.87	-125.237	68.3513	-44.2616	-123.141	71.5846	-68.4076	-119.84	77.6812	-93.6709	-147.58	74.3191	-45.0682	-149.282	81.446	-67.0275	-146.335	87.9914	-86.8567	-176.392	72.7122	-33.0712	-179.509	77.2641	-51.8995	-184.773	91.7994	-63.9142	-153.131	73.706	4.62785	-160.321	72.4516	34.8071	-129.231	64.9923	25.0647	
